<?xml version="1.0" standalone="no"?>
<!DOCTYPE svg PUBLIC "-//W3C//DTD SVG 20010904//EN"
 "http://www.w3.org/TR/2001/REC-SVG-20010904/DTD/svg10.dtd">
<svg version="1.0" xmlns="http://www.w3.org/2000/svg"
 width="97.000000pt" height="97.000000pt" viewBox="0 0 97.000000 97.000000"
 preserveAspectRatio="xMidYMid meet">
<metadata>
Created by potrace 1.14, written by Peter Selinger 2001-2017
</metadata>
<g transform="translate(0.000000,97.000000) scale(0.100000,-0.100000)"
fill="#000000" stroke="none">
<path d="M333 866 c-104 -34 -204 -123 -251 -224 -24 -50 -27 -69 -27 -162 0
-93 3 -111 27 -163 54 -115 138 -189 252 -222 85 -25 203 -17 278 17 l57 26
-15 40 c-35 88 28 174 128 176 50 1 52 2 61 36 5 19 7 72 5 117 -6 105 -44
187 -123 262 -80 76 -149 104 -260 108 -57 2 -106 -2 -132 -11z m158 -132 c12
-34 -11 -68 -49 -72 -40 -4 -59 28 -43 71 10 25 15 28 47 25 27 -2 39 -9 45
-24z m-1 -314 c0 -160 1 -170 19 -170 22 0 36 -40 18 -52 -33 -21 -99 1 -116
39 -7 14 -11 89 -11 188 l0 165 45 0 45 0 0 -170z"/>
<path d="M704 296 c-26 -26 -34 -42 -34 -71 0 -69 41 -114 103 -115 73 0 116
40 117 109 0 36 -6 49 -34 77 -28 28 -42 34 -76 34 -34 0 -48 -6 -76 -34z"/>
</g>
</svg>
